<?xml version="1.0" standalone="no"?>
<!DOCTYPE svg PUBLIC "-//W3C//DTD SVG 20010904//EN"
 "http://www.w3.org/TR/2001/REC-SVG-20010904/DTD/svg10.dtd">
<svg version="1.0" xmlns="http://www.w3.org/2000/svg"
 width="7667.000000pt" height="2928.000000pt" viewBox="0 0 7667.000000 2928.000000"
 preserveAspectRatio="xMidYMid meet">
<metadata>
Created by potrace 1.16, written by Peter Selinger 2001-2019
</metadata>
<g transform="translate(0.000000,2928.000000) scale(0.100000,-0.100000)"
fill="#000000" stroke="none">
<path d="M38935 28313 c-833 -28 -1537 -232 -2075 -601 -224 -153 -452 -365
-610 -567 -388 -495 -765 -876 -1258 -1269 -1910 -1522 -4991 -2662 -8987
-3325 -1167 -194 -2480 -349 -3515 -416 -135 -8 -282 -18 -327 -21 l-83 -6 0
-4776 0 -4777 247 -260 c1130 -1192 2521 -2582 3768 -3765 2988 -2833 5642
-4999 7845 -6404 103 -65 247 -169 325 -233 77 -63 235 -186 350 -273 2277
-1712 4659 -2067 7130 -1063 748 304 1552 761 2308 1313 109 80 300 210 425
291 2227 1428 4903 3625 7937 6513 1178 1122 2667 2616 3663 3674 l182 193 0
4780 0 4779 -73 0 c-161 0 -909 58 -1422 111 -886 90 -1655 194 -2520 339
-3460 581 -6263 1537 -8160 2784 -574 378 -1029 747 -1440 1167 -167 171 -385
419 -464 528 -232 321 -455 542 -736 730 -628 421 -1403 592 -2510 554z m915
-237 c504 -61 846 -157 1203 -338 378 -192 699 -471 933 -809 17 -25 87 -112
156 -194 1199 -1429 3215 -2589 5993 -3450 1973 -611 4352 -1070 6765 -1304
327 -32 1052 -90 1128 -91 9 0 12 -934 12 -4635 l0 -4634 -182 -193 c-1026
-1084 -2411 -2471 -3568 -3574 -2600 -2477 -4938 -4448 -6950 -5856 -286 -200
-842 -571 -1060 -708 -74 -47 -209 -139 -300 -206 -945 -695 -1896 -1205
-2820 -1514 -500 -167 -1042 -282 -1560 -330 -305 -29 -818 -29 -1119 0 -891
85 -1768 363 -2626 832 -467 256 -1026 636 -1475 1005 -86 71 -224 169 -340
243 -2087 1326 -4666 3420 -7530 6114 -1324 1246 -2761 2678 -4048 4031 l-161
170 -1 4636 0 4636 188 12 c557 36 1327 111 1977 192 3495 435 6527 1258 8705
2362 1085 550 1941 1148 2630 1837 233 232 359 373 557 622 229 289 398 449
651 618 464 310 1045 489 1752 539 205 15 932 6 1090 -13z"/>
<path d="M26641 18973 c-12 -93 -25 -184 -28 -204 l-5 -36 123 -17 c7484
-1011 14873 -1114 22299 -310 888 96 2609 308 2666 328 11 4 -37 390 -50 403
-3 3 -115 -8 -248 -26 -3222 -430 -6266 -681 -9463 -781 -979 -30 -1336 -35
-2810 -35 -1529 0 -1840 4 -2945 40 -3014 99 -6047 349 -9067 750 -227 30
-421 55 -431 55 -17 0 -21 -19 -41 -167z"/>
<path d="M23738 18025 c-155 -50 -319 -273 -425 -580 -13 -38 -168 -639 -345
-1335 -298 -1174 -321 -1273 -326 -1372 -4 -90 -1 -117 17 -177 34 -111 111
-180 201 -181 105 0 230 118 295 278 14 35 132 494 261 1020 129 527 237 964
241 972 3 8 14 -30 25 -85 10 -55 63 -336 118 -625 149 -783 305 -1558 329
-1624 41 -118 110 -198 211 -245 45 -21 69 -25 135 -25 158 1 251 63 403 267
185 248 708 972 1007 1392 164 231 304 426 311 434 11 12 12 11 9 -5 -50 -215
-388 -1942 -392 -2001 -21 -316 184 -493 372 -322 64 60 106 122 140 212 15
42 83 364 176 845 84 427 153 779 155 781 2 2 106 -35 231 -82 125 -46 280
-104 345 -127 l116 -42 -43 -72 c-447 -747 -543 -911 -562 -963 -79 -219 -66
-489 31 -615 89 -117 244 -110 351 14 40 47 254 398 619 1014 l238 402 211
-70 c117 -39 214 -72 215 -74 2 -1 -15 -26 -39 -56 -82 -103 -145 -269 -174
-458 -45 -294 30 -552 184 -632 112 -58 221 -29 330 88 170 181 261 572 197
848 -7 31 -13 56 -12 56 0 0 109 -33 240 -73 l240 -73 28 -129 c102 -463 263
-1158 279 -1200 39 -104 117 -164 213 -165 100 0 194 77 261 214 57 117 78
211 79 361 1 127 -1 137 -67 418 -38 159 -67 290 -65 291 2 2 75 -17 163 -41
404 -111 1123 -286 1690 -413 214 -47 224 -48 -410 15 -247 25 -470 45 -494
45 -169 0 -317 -239 -337 -545 -14 -216 68 -415 189 -459 73 -27 1483 -160
2611 -246 446 -34 461 -34 582 24 83 39 201 145 271 244 61 85 133 231 174
352 40 117 11 109 254 77 l170 -23 -1 -64 c-1 -36 -2 -130 -4 -210 -2 -107 2
-163 14 -214 37 -157 116 -262 215 -286 91 -22 172 19 239 120 77 115 108 231
118 445 l7 140 166 -17 c605 -63 1433 -123 1941 -143 85 -3 192 -8 236 -11
l81 -6 101 -136 c56 -75 145 -200 199 -276 54 -77 114 -152 133 -167 148 -118
326 -3 395 256 9 33 19 115 22 183 l6 122 188 0 c168 0 189 -2 189 -16 0 -36
73 -232 122 -327 43 -84 68 -118 138 -188 91 -91 147 -125 227 -137 104 -15
1514 20 2525 62 314 14 318 14 362 40 158 92 214 435 112 686 -14 35 -24 66
-22 67 6 6 339 42 346 38 4 -2 10 -69 14 -147 4 -79 11 -179 17 -223 44 -338
261 -508 424 -334 108 116 128 238 102 612 -9 116 -9 167 -2 167 65 0 1044
153 1507 236 l257 46 93 -80 c121 -104 372 -360 576 -589 174 -194 212 -223
291 -223 78 0 140 46 184 135 41 82 51 133 51 260 0 213 -42 316 -217 530
l-114 139 321 72 c176 40 340 76 362 82 36 8 41 7 38 -7 -2 -9 -22 -89 -44
-179 -50 -201 -57 -276 -36 -408 50 -329 233 -527 411 -445 51 23 87 62 120
128 21 43 200 745 265 1043 l12 55 242 64 c132 35 246 65 252 68 7 2 13 -31
17 -99 14 -230 98 -446 220 -571 97 -99 209 -124 315 -71 81 40 133 118 174
261 44 153 24 441 -42 616 -14 35 -15 49 -7 53 78 28 414 121 420 115 4 -4 85
-142 180 -307 538 -932 538 -933 646 -969 46 -15 62 -16 105 -6 94 21 151 88
192 226 27 92 23 263 -9 386 -31 119 -38 132 -270 527 -104 178 -191 331 -194
340 -3 14 51 35 308 120 171 56 313 101 314 100 1 -2 50 -266 108 -587 60
-324 118 -614 131 -653 60 -172 174 -296 289 -315 84 -13 186 53 227 149 32
76 53 200 46 283 -5 58 -226 1255 -242 1306 -3 13 25 27 141 69 84 31 150 49
154 44 5 -5 68 -313 140 -684 72 -371 145 -718 162 -770 36 -115 103 -219 173
-269 75 -54 107 -53 486 19 696 130 1334 257 2115 420 141 29 195 57 279 143
369 377 348 1523 -45 2460 -238 568 -565 984 -846 1078 -103 34 -169 29 -468
-34 -368 -78 -1194 -242 -1698 -337 -235 -44 -440 -86 -456 -94 -120 -62 -169
-289 -112 -521 45 -185 150 -338 254 -371 l52 -16 433 81 c487 92 1255 243
1652 326 145 30 284 55 308 55 253 0 518 -491 613 -1135 40 -271 15 -493 -71
-628 -48 -76 -83 -90 -406 -157 -625 -130 -1841 -367 -1848 -359 -2 2 -47 220
-101 484 -53 264 -108 514 -121 555 -43 137 -119 241 -206 284 -81 41 -155 30
-215 -31 -26 -26 -122 -65 -369 -153 l-80 -28 -148 781 c-91 480 -159 814
-176 865 -87 259 -265 384 -410 288 -51 -34 -85 -94 -111 -197 -35 -138 -28
-196 140 -1113 83 -451 150 -820 148 -821 -1 -1 -173 -59 -382 -129 -299 -99
-382 -123 -391 -113 -20 21 -473 820 -859 1512 -119 215 -236 417 -260 451
-101 142 -258 258 -385 285 -141 30 -290 -34 -393 -169 -114 -150 -142 -231
-257 -758 -154 -703 -465 -2062 -475 -2072 -6 -7 -593 -140 -1045 -238 -22 -5
-21 -2 12 26 123 103 224 308 275 556 26 127 26 544 0 689 -38 210 -103 417
-180 570 -86 172 -231 337 -347 393 -101 50 -139 53 -360 32 -530 -51 -1607
-134 -2080 -161 -113 -6 -222 -15 -243 -21 -139 -34 -227 -263 -197 -513 26
-214 116 -374 229 -405 29 -8 120 -5 358 10 593 37 1581 115 1988 155 234 23
230 24 266 -32 42 -68 62 -144 62 -243 0 -84 -23 -166 -51 -184 -19 -11 -1120
-104 -1917 -161 -192 -13 -364 -29 -380 -33 -96 -28 -198 -116 -264 -227 -111
-183 -179 -512 -169 -809 l4 -132 -160 -18 c-1063 -115 -1776 -164 -2948 -201
l-198 -7 0 164 0 164 606 13 c334 6 735 16 893 21 702 23 1149 42 1181 51 121
31 203 205 202 429 -1 186 -52 341 -141 430 -71 70 -74 71 -469 55 -553 -22
-920 -34 -1482 -45 -1093 -23 -1099 -23 -1157 -49 -66 -29 -114 -81 -144 -157
-24 -59 -24 -59 -27 -566 l-3 -508 -254 0 -254 0 -117 173 c-216 319 -425 583
-628 794 l-104 108 142 146 c249 256 411 461 655 827 215 322 246 398 245 617
0 146 -17 229 -66 334 -56 118 -151 184 -241 167 -47 -9 -112 -57 -150 -113
-456 -661 -754 -994 -1087 -1215 -133 -89 -255 -150 -367 -185 -87 -28 -90
-28 -348 -26 -239 2 -914 27 -919 35 -2 2 11 265 28 586 29 557 30 587 14 677
-39 229 -157 358 -297 323 -61 -15 -137 -91 -179 -179 -67 -139 -66 -131 -147
-1492 -41 -690 -75 -1270 -75 -1287 0 -32 0 -32 -42 -26 -24 3 -99 13 -168 22
l-126 16 0 242 c1 259 -10 360 -60 559 -75 300 -221 525 -394 606 -74 35 -72
35 -485 66 -620 47 -1371 113 -1960 171 -193 19 -264 30 -277 41 -53 48 -72
244 -34 368 19 65 65 144 93 161 14 8 64 7 198 -7 585 -59 1741 -158 2408
-205 277 -20 293 -17 369 53 57 55 109 152 139 268 29 109 32 329 5 425 -43
154 -112 240 -207 258 -30 6 -225 22 -434 37 -591 41 -1423 112 -2118 181
-218 21 -267 23 -315 13 -316 -65 -598 -519 -704 -1134 -19 -112 -22 -166 -22
-395 0 -250 1 -272 27 -392 76 -356 230 -587 432 -651 83 -27 1462 -154 2405
-222 321 -23 296 -17 327 -78 23 -45 27 -68 31 -164 4 -101 3 -113 -12 -113
-31 0 -566 90 -921 155 -973 178 -1868 382 -2905 662 -135 36 -248 69 -252 72
-12 10 -260 1146 -427 1956 -75 364 -98 443 -158 557 -50 95 -150 198 -229
235 -52 25 -71 28 -160 28 -96 0 -103 -2 -177 -38 -89 -44 -217 -159 -295
-265 -27 -37 -158 -258 -292 -492 -435 -763 -693 -1200 -707 -1200 -7 0 -147
49 -311 109 -486 178 -502 184 -502 199 0 8 25 141 55 296 79 406 90 540 60
737 -38 253 -147 383 -321 382 -159 -1 -247 -85 -574 -553 -535 -765 -1222
-1719 -1274 -1769 l-36 -34 -16 39 c-25 58 -191 899 -389 1967 -112 611 -140
709 -227 803 -23 25 -60 55 -82 66 -51 26 -138 32 -198 13z m168 -146 c67 -63
109 -190 164 -494 169 -935 411 -2169 442 -2254 30 -79 74 -121 127 -121 55 0
85 17 147 82 67 69 634 854 1202 1662 123 177 228 323 231 326 3 3 24 32 45
65 52 79 130 161 185 193 76 44 164 28 211 -38 71 -100 98 -337 65 -580 -18
-138 -491 -2560 -511 -2625 -35 -106 -107 -206 -160 -219 -61 -16 -104 58
-111 194 -5 80 7 144 207 1140 139 691 213 1078 214 1123 1 61 -2 71 -23 88
-36 30 -66 24 -110 -22 -22 -23 -131 -170 -242 -328 -543 -765 -1253 -1742
-1309 -1800 -142 -147 -326 -128 -409 41 -23 48 -44 129 -87 338 -90 445 -218
1102 -309 1590 -47 250 -93 493 -101 540 -30 156 -68 208 -132 177 -50 -23
-37 24 -460 -1690 -96 -390 -139 -546 -162 -594 -55 -111 -144 -184 -189 -156
-9 6 -25 25 -36 44 -17 29 -20 52 -20 154 l1 120 317 1248 c313 1232 342 1339
398 1464 72 162 184 307 264 345 52 24 117 19 151 -13z m29939 -94 c355 -173
773 -922 930 -1665 73 -346 100 -708 75 -985 -34 -369 -136 -623 -287 -711
-52 -31 -140 -50 -1028 -229 -753 -151 -1519 -295 -1569 -295 -29 0 -44 8 -74
40 -76 77 -100 147 -163 465 -246 1235 -251 1265 -246 1361 5 106 33 180 72
190 52 13 118 -53 171 -171 23 -52 53 -189 194 -885 34 -168 64 -307 66 -309
14 -15 2210 424 2303 461 111 44 195 161 243 335 32 116 32 397 -1 578 -44
251 -126 528 -210 710 -92 199 -240 373 -369 437 -115 57 -127 55 -962 -114
-867 -176 -1577 -310 -1601 -303 -26 9 -85 78 -114 134 -30 61 -61 174 -70
258 -9 79 10 193 38 235 l22 32 365 68 c411 77 1391 270 1785 353 297 62 321
63 430 10z m-24918 -1077 c26 -33 71 -207 148 -578 46 -223 109 -522 140 -664
30 -143 54 -261 52 -262 -8 -8 -1067 332 -1067 342 0 2 65 116 144 252 78 136
207 360 286 497 164 287 195 337 240 388 35 40 42 43 57 25z m19346 -176 c30
-42 155 -257 277 -477 172 -308 439 -783 476 -847 5 -8 -62 -29 -428 -134
-263 -76 -832 -233 -834 -230 -1 0 31 145 72 321 41 176 122 534 180 795 125
565 154 667 188 654 7 -3 38 -40 69 -82z m-2578 10 c104 -52 225 -202 310
-386 112 -241 165 -504 165 -818 0 -318 -58 -545 -183 -714 -70 -95 -162 -144
-272 -144 -97 0 -98 1 62 -164 80 -83 203 -216 272 -295 271 -309 331 -401
352 -541 27 -181 -24 -370 -102 -370 -35 0 -52 16 -210 195 -173 196 -544 566
-667 665 -149 118 -279 203 -417 271 -253 123 -392 146 -726 119 -68 -5 -256
-19 -417 -30 -206 -14 -301 -24 -321 -34 -69 -36 -120 -141 -128 -266 -3 -41
7 -246 22 -455 15 -209 25 -416 22 -460 -8 -130 -66 -245 -123 -245 -47 0
-110 92 -140 203 -22 83 -77 963 -70 1132 14 374 131 671 296 755 36 18 90 24
453 51 898 64 1834 144 1883 159 150 49 197 366 87 583 -35 70 -102 134 -150
143 -22 4 -143 -2 -288 -15 -693 -62 -1366 -114 -1949 -151 -360 -23 -345 -25
-390 53 -83 141 -97 380 -32 523 13 29 35 59 48 67 16 10 83 18 228 26 497 29
1579 112 2065 160 213 21 249 19 320 -17z m-3362 -1643 c34 -26 81 -126 97
-204 32 -152 4 -357 -58 -422 -27 -30 -27 -30 -182 -36 -653 -28 -1552 -55
-2173 -64 l-458 -6 3 -281 c3 -269 4 -283 26 -331 29 -62 75 -111 120 -126 24
-8 117 -9 315 -5 1075 25 1405 35 2066 62 444 18 411 24 469 -84 55 -102 75
-257 51 -388 -14 -75 -54 -161 -82 -176 -28 -15 -257 -25 -1397 -63 -291 -10
-968 -25 -1205 -26 -263 -2 -260 -3 -352 84 -124 117 -220 337 -269 617 -17
94 -19 165 -19 685 0 560 1 581 20 620 14 27 33 47 62 61 40 20 62 22 390 28
931 18 1811 42 2308 65 94 4 186 9 206 9 23 1 46 -5 62 -19z m-6183 -579 c460
-16 604 -27 690 -51 201 -55 438 -205 663 -419 59 -56 106 -104 105 -106 -4
-4 -441 21 -738 41 -388 27 -1108 91 -1249 111 l-44 7 7 151 c4 83 9 182 13
220 l6 69 121 -6 c67 -4 258 -11 426 -17z m8528 -96 c42 -9 83 -19 91 -23 17
-10 -695 -125 -1163 -189 l-68 -9 5 48 c3 26 15 66 26 88 25 48 6 44 356 67
138 9 291 19 340 24 162 13 331 11 413 -6z"/>
<path d="M42085 16464 c-114 -12 -1509 -52 -2196 -63 -467 -8 -530 -11 -562
-26 -70 -33 -129 -123 -163 -246 -25 -90 -26 -309 -1 -398 36 -131 112 -238
186 -262 68 -23 1874 17 2815 62 252 12 273 18 331 97 140 191 115 599 -49
780 -45 51 -86 62 -213 60 -65 0 -131 -3 -148 -4z m270 -148 c105 -105 136
-414 59 -574 -14 -28 -35 -57 -46 -63 -40 -21 -1471 -70 -2513 -85 l-471 -7
-32 38 c-93 113 -109 390 -33 552 15 32 35 64 45 72 13 11 114 15 529 22 674
11 2078 51 2192 63 17 1 79 4 138 4 101 2 109 1 132 -22z"/>
<path d="M26638 12901 c-106 -155 -115 -171 -100 -184 30 -26 680 -458 917
-609 1314 -835 2556 -1497 3830 -2043 3044 -1303 6078 -1848 9125 -1640 3720
255 7447 1641 11163 4153 119 81 217 149 217 153 0 11 -227 334 -234 333 -4
-1 -197 -128 -429 -281 -1067 -708 -1932 -1210 -3007 -1746 -2634 -1314 -5259
-2049 -7885 -2207 -523 -31 -1282 -40 -1775 -20 -3215 131 -6365 1091 -9570
2918 -625 356 -1354 811 -1938 1210 -106 73 -194 132 -195 132 -1 0 -54 -76
-119 -169z"/>
</g>
</svg>
